<?xml version="1.0" encoding="UTF-8"?>
<svg xmlns="http://www.w3.org/2000/svg" viewBox="0 0 390 140">
  <!-- Document icon -->
  <g transform="translate(20, 12)">
    <path d="M 6 4 L 6 100 Q 6 110, 16 110 L 72 110 Q 82 110, 82 100 L 82 28 L 60 4 L 16 4 Q 6 4, 6 4 Z" 
          fill="none" stroke="#009739" stroke-width="4.5" stroke-linejoin="round" stroke-linecap="round"/>
    <path d="M 57 4 L 57 25 Q 57 30, 62 30 L 82 30" 
          fill="none" stroke="#009739" stroke-width="4.5" stroke-linejoin="round" stroke-linecap="round"/>
    <path d="M 30 62 L 40 73 L 60 46" 
          fill="none" stroke="#009739" stroke-width="5.5" stroke-linecap="round" stroke-linejoin="round"/>
  </g>
  
  <!-- "get" outlined -->
  <path d="M159.44 63.39L159.44 58.17L170.72 58.17L170.72 94.94Q170.72 100.02 168.71 104.14Q166.70 108.27 162.58 110.71Q158.45 113.16 152.31 113.16Q144.12 113.16 139.04 109.29Q133.95 105.42 133.23 98.83L144.39 98.83Q144.92 100.94 146.90 102.16Q148.88 103.38 151.78 103.38Q155.28 103.38 157.36 101.37Q159.44 99.36 159.44 94.94L159.44 89.72Q157.78 92.30 154.88 93.91Q151.98 95.53 148.08 95.53Q143.53 95.53 139.84 93.19Q136.14 90.84 133.99 86.52Q131.84 82.20 131.84 76.52Q131.84 70.84 133.99 66.55Q136.14 62.27 139.84 59.95Q143.53 57.64 148.08 57.64Q151.98 57.64 154.92 59.23Q157.86 60.81 159.44 63.39ZM151.39 67.48Q148.02 67.48 145.67 69.89Q143.33 72.30 143.33 76.52Q143.33 80.75 145.67 83.22Q148.02 85.69 151.39 85.69Q154.75 85.69 157.09 83.25Q159.44 80.81 159.44 76.59Q159.44 72.36 157.09 69.92Q154.75 67.48 151.39 67.48Z M213.42 79.30L187.88 79.30Q188.14 82.72 190.09 84.54Q192.03 86.36 194.88 86.36Q199.09 86.36 200.75 82.80L212.77 82.80Q211.84 86.42 209.43 89.33Q207.02 92.23 203.39 93.88Q199.77 95.53 195.27 95.53Q189.86 95.53 185.63 93.22Q181.41 90.91 179.03 86.62Q176.66 82.33 176.66 76.59Q176.66 70.84 179.00 66.55Q181.34 62.27 185.57 59.95Q189.80 57.64 195.27 57.64Q200.62 57.64 204.78 59.88Q208.94 62.12 211.28 66.29Q213.62 70.45 213.62 75.98Q213.62 77.58 213.42 79.30ZM202.08 73.02Q202.08 70.12 200.09 68.41Q198.11 66.69 195.14 66.69Q192.30 66.69 190.35 68.34Q188.41 69.98 187.95 73.02L202.08 73.02Z M240.09 85.44L240.09 95.00L234.34 95.00Q228.20 95.00 224.77 92.00Q221.34 89.00 221.34 82.20L221.34 67.55L216.86 67.55L216.86 58.17L221.34 58.17L221.34 49.20L232.62 49.20L232.62 58.17L240.02 58.17L240.02 67.55L232.62 67.55L232.62 82.33Q232.62 83.98 233.42 84.71Q234.22 85.44 236.06 85.44L240.09 85.44Z" fill="#B0B0B0"/>
  
  <!-- "CPF" outlined -->
  <path d="M267.73 48.14Q275.98 48.14 281.86 52.50Q287.73 56.86 289.72 64.38L277.31 64.38Q275.92 61.47 273.38 59.95Q270.84 58.44 267.61 58.44Q262.39 58.44 259.16 62.07Q255.92 65.70 255.92 71.77Q255.92 77.84 259.16 81.47Q262.39 85.09 267.61 85.09Q270.84 85.09 273.38 83.58Q275.92 82.06 277.31 79.16L289.72 79.16Q287.73 86.69 281.86 91.01Q275.98 95.33 267.73 95.33Q261.02 95.33 255.70 92.33Q250.39 89.33 247.41 83.98Q244.44 78.62 244.44 71.77Q244.44 64.91 247.41 59.52Q250.39 54.14 255.70 51.14Q261.02 48.14 267.73 48.14Z M314.94 78.38L307.94 78.38L307.94 95.00L296.66 95.00L296.66 48.67L314.94 48.67Q320.48 48.67 324.31 50.59Q328.14 52.50 330.05 55.87Q331.97 59.23 331.97 63.58Q331.97 67.61 330.12 70.95Q328.27 74.28 324.44 76.33Q320.61 78.38 314.94 78.38ZM320.48 63.58Q320.48 60.81 318.90 59.30Q317.31 57.78 314.08 57.78L307.94 57.78L307.94 69.39L314.08 69.39Q317.31 69.39 318.90 67.88Q320.48 66.36 320.48 63.58Z M368.00 48.67L368.00 57.70L349.12 57.70L349.12 67.48L363.25 67.48L363.25 76.25L349.12 76.25L349.12 95.00L337.84 95.00L337.84 48.67L368.00 48.67Z" fill="#1a1a1a"/>
</svg>